<svg width="55" height="55" viewBox="0 0 55 55" fill="none" xmlns="http://www.w3.org/2000/svg">
<path d="M48.3842 0H5.8061C2.60065 0 0 2.60065 0 5.8061V48.3842C0 51.5896 2.60065 54.1903 5.8061 54.1903H48.3842C51.5896 54.1903 54.1903 51.5896 54.1903 48.3842V5.8061C54.1903 2.60065 51.5896 0 48.3842 0ZM33.5423 46.4125C32.5263 46.594 32.1513 45.965 32.1513 45.4448C32.1513 44.7917 32.1755 41.4531 32.1755 38.7557C32.1755 36.8687 31.5465 35.6712 30.8086 35.0422C35.2842 34.5463 40.0016 33.9294 40.0016 26.2C40.0016 23.9986 39.2154 22.8978 37.9332 21.4826C38.1388 20.9624 38.8283 18.8214 37.7276 16.0394C36.0462 15.5192 32.1997 18.2045 32.1997 18.2045C30.603 17.757 28.8733 17.5272 27.1677 17.5272C25.4622 17.5272 23.7324 17.757 22.1358 18.2045C22.1358 18.2045 18.2892 15.5192 16.6079 16.0394C15.5071 18.8094 16.1845 20.9504 16.4022 21.4826C15.1201 22.8978 14.5153 23.9986 14.5153 26.2C14.5153 33.8931 19.0271 34.5463 23.5026 35.0422C22.922 35.5624 22.4019 36.4575 22.2204 37.7397C21.0713 38.2598 18.132 39.1549 16.378 36.0583C15.2773 34.1471 13.2936 33.9899 13.2936 33.9899C11.334 33.9657 13.1605 35.2237 13.1605 35.2237C14.4669 35.8285 15.3862 38.1509 15.3862 38.1509C16.5595 41.7435 22.1721 40.5339 22.1721 40.5339C22.1721 42.2152 22.1962 44.9489 22.1962 45.4448C22.1962 45.965 21.8334 46.594 20.8052 46.4125C12.8218 43.7393 7.23344 36.143 7.23344 27.2645C7.23344 16.1603 15.7249 7.72937 26.829 7.72937C37.9332 7.72937 46.9327 16.1603 46.9327 27.2645C46.9448 36.143 41.5257 43.7514 33.5423 46.4125ZM21.6761 39.0218C21.4463 39.0702 21.2286 38.9735 21.2044 38.8162C21.1802 38.6348 21.3374 38.4775 21.5673 38.4291C21.7971 38.4049 22.0148 38.5017 22.039 38.659C22.0753 38.8162 21.918 38.9735 21.6761 39.0218ZM20.527 38.913C20.527 39.0702 20.3455 39.2033 20.1036 39.2033C19.8375 39.2275 19.6561 39.0944 19.6561 38.913C19.6561 38.7557 19.8375 38.6227 20.0794 38.6227C20.3093 38.5985 20.527 38.7315 20.527 38.913ZM18.8698 38.7799C18.8214 38.9372 18.5795 39.0097 18.3739 38.9372C18.1441 38.8888 17.9868 38.7073 18.0352 38.5501C18.0836 38.3929 18.3255 38.3203 18.5311 38.3687C18.7731 38.4412 18.9303 38.6227 18.8698 38.7799ZM17.382 38.1267C17.2732 38.2598 17.0433 38.2356 16.8619 38.0542C16.6804 37.8969 16.6321 37.6671 16.753 37.5582C16.8619 37.4252 17.0917 37.4494 17.2732 37.6308C17.4304 37.788 17.4909 38.03 17.382 38.1267ZM16.2813 37.026C16.1724 37.0986 15.9668 37.026 15.8337 36.8446C15.7007 36.6631 15.7007 36.4575 15.8337 36.3728C15.9668 36.2639 16.1724 36.3486 16.2813 36.5301C16.4143 36.7115 16.4143 36.9292 16.2813 37.026V37.026ZM15.495 35.8527C15.3862 35.9615 15.2047 35.9011 15.0717 35.7801C14.9386 35.6229 14.9144 35.4414 15.0233 35.3567C15.1322 35.2479 15.3136 35.3084 15.4467 35.4293C15.5797 35.5866 15.6039 35.768 15.495 35.8527ZM14.6846 34.9576C14.6362 35.0664 14.479 35.0906 14.3459 35.006C14.1887 34.9334 14.1161 34.8003 14.1645 34.6915C14.2129 34.6189 14.3459 34.5826 14.5032 34.6431C14.6604 34.7277 14.733 34.8608 14.6846 34.9576Z" fill="#3D3D3D" fill-opacity="0.51"/>
</svg>
