<svg xmlns="http://www.w3.org/2000/svg" width="55" height="55" fill="none" viewBox="0 0 55 55"><path fill="#3D3D3D" fill-opacity=".51" d="M27.4685 18.0596C22.4932 18.0596 18.4331 22.1198 18.4331 27.0951C18.4331 32.0705 22.4932 36.1307 27.4685 36.1307C32.4437 36.1307 36.5039 32.0705 36.5039 27.0951C36.5039 22.1198 32.4437 18.0596 27.4685 18.0596ZM54.5679 27.0951C54.5679 23.3535 54.6018 19.6457 54.3916 15.9108C54.1815 11.5727 53.1919 7.72257 50.0197 4.5503C46.8407 1.37125 42.9974 0.388383 38.6593 0.178254C34.9178 -0.0318757 31.2101 0.00201619 27.4753 0.00201619C23.7337 0.00201619 20.026 -0.0318757 16.2912 0.178254C11.9531 0.388383 8.10305 1.37802 4.93083 4.5503C1.75184 7.72935 0.768991 11.5727 0.558866 15.9108C0.34874 19.6525 0.382631 23.3603 0.382631 27.0951C0.382631 30.83 0.34874 34.5446 0.558866 38.2794C0.768991 42.6176 1.75861 46.4677 4.93083 49.64C8.10982 52.819 11.9531 53.8019 16.2912 54.012C20.0327 54.2222 23.7404 54.1883 27.4753 54.1883C31.2168 54.1883 34.9245 54.2222 38.6593 54.012C42.9974 53.8019 46.8475 52.8123 50.0197 49.64C53.1987 46.4609 54.1815 42.6176 54.3916 38.2794C54.6085 34.5446 54.5679 30.8368 54.5679 27.0951V27.0951ZM27.4685 40.9976C19.7752 40.9976 13.5663 34.7886 13.5663 27.0951C13.5663 19.4017 19.7752 13.1927 27.4685 13.1927C35.1618 13.1927 41.3706 19.4017 41.3706 27.0951C41.3706 34.7886 35.1618 40.9976 27.4685 40.9976ZM41.94 15.8702C40.1438 15.8702 38.6932 14.4196 38.6932 12.6233C38.6932 10.8271 40.1438 9.3765 41.94 9.3765C43.7363 9.3765 45.1868 10.8271 45.1868 12.6233C45.1873 13.0499 45.1037 13.4723 44.9407 13.8665C44.7778 14.2606 44.5386 14.6188 44.237 14.9204C43.9354 15.222 43.5773 15.4611 43.1831 15.6241C42.789 15.7871 42.3665 15.8707 41.94 15.8702V15.8702Z"/></svg>