<svg xmlns="http://www.w3.org/2000/svg" width="55" height="55" fill="none" viewBox="0 0 55 55"><path fill="#3D3D3D" fill-opacity=".51" d="M0 3.88138C0 1.73748 1.78151 0 3.9796 0H50.2107C52.4088 0 54.1903 1.73748 54.1903 3.88138V50.3089C54.1903 52.4528 52.4088 54.1903 50.2107 54.1903H3.9796C1.78151 54.1903 0 52.4528 0 50.3089V3.88138ZM16.7414 45.364V20.8937H8.60948V45.364H16.7414ZM12.6771 17.5509C15.512 17.5509 17.2765 15.6745 17.2765 13.324C17.2257 10.9227 15.5154 9.09719 12.7313 9.09719C9.9473 9.09719 8.12854 10.9261 8.12854 13.324C8.12854 15.6745 9.89311 17.5509 12.6229 17.5509H12.6771V17.5509ZM29.3 45.364V31.6979C29.3 30.9664 29.3542 30.2348 29.571 29.7132C30.1569 28.2535 31.4947 26.7395 33.7436 26.7395C36.6868 26.7395 37.8621 28.9816 37.8621 32.2737V45.364H45.994V31.3288C45.994 23.8099 41.9839 20.3146 36.6326 20.3146C32.3177 20.3146 30.3838 22.6854 29.3 24.3551V24.4398H29.2458C29.2638 24.4115 29.2819 24.3833 29.3 24.3551V20.8937H21.1715C21.2731 23.1901 21.1715 45.364 21.1715 45.364H29.3Z"/></svg>