<svg xmlns="http://www.w3.org/2000/svg" width="55" height="55" fill="none" viewBox="0 0 55 55"><path fill="#3D3D3D" fill-opacity=".51" d="M52.213 0H2.35792C1.15896 0 0.190308 0.968651 0.190308 2.16761V52.0227C0.190308 53.2216 1.15896 54.1903 2.35792 54.1903H52.213C53.4119 54.1903 54.3806 53.2216 54.3806 52.0227V2.16761C54.3806 0.968651 53.4119 0 52.213 0ZM41.8694 19.6237C41.8897 19.942 41.8897 20.2739 41.8897 20.5991C41.8897 30.543 34.3166 41.9975 20.4778 41.9975C16.2103 41.9975 12.2544 40.7579 8.92172 38.6241C9.53136 38.6919 10.1139 38.719 10.7371 38.719C14.2595 38.719 17.4973 37.5268 20.0781 35.5082C16.7725 35.4404 13.9953 33.2728 13.047 30.2924C14.2053 30.4617 15.2484 30.4617 16.4406 30.1569C14.7385 29.8111 13.2087 28.8867 12.1109 27.5407C11.0132 26.1948 10.4152 24.5103 10.4187 22.7735V22.6786C11.4145 23.2409 12.5863 23.5863 13.8124 23.6337C12.7817 22.9468 11.9364 22.0162 11.3515 20.9244C10.7667 19.8326 10.4602 18.6134 10.4594 17.3748C10.4594 15.9726 10.8252 14.6923 11.4822 13.5814C13.3714 15.9071 15.7289 17.8092 18.4014 19.1642C21.0739 20.5191 24.0016 21.2965 26.9942 21.4458C25.9307 16.3316 29.7511 12.1928 34.3437 12.1928C36.5113 12.1928 38.4622 13.1005 39.8373 14.5636C41.5375 14.2453 43.1632 13.6085 44.6128 12.755C44.0506 14.4959 42.8719 15.9658 41.3072 16.8938C42.8245 16.7312 44.2877 16.3113 45.6424 15.722C44.6196 17.2257 43.3393 18.5602 41.8694 19.6237V19.6237Z"/></svg>