<svg xmlns="http://www.w3.org/2000/svg" width="31" height="30" fill="none" viewBox="0 0 31 30"><path fill="#3D3D3D" d="M29.1066 0H1.50664C0.842891 0 0.306641 0.53625 0.306641 1.2V28.8C0.306641 29.4638 0.842891 30 1.50664 30H29.1066C29.7704 30 30.3066 29.4638 30.3066 28.8V1.2C30.3066 0.53625 29.7704 0 29.1066 0ZM23.3804 10.8638C23.3916 11.04 23.3916 11.2238 23.3916 11.4038C23.3916 16.9088 19.1991 23.25 11.5379 23.25C9.17539 23.25 6.98539 22.5638 5.14039 21.3825C5.47789 21.42 5.80039 21.435 6.14539 21.435C8.09539 21.435 9.88789 20.775 11.3166 19.6575C9.48664 19.62 7.94914 18.42 7.42414 16.77C8.06539 16.8638 8.64289 16.8638 9.30289 16.695C8.36061 16.5036 7.51367 15.9918 6.90595 15.2467C6.29823 14.5016 5.96722 13.569 5.96914 12.6075V12.555C6.52039 12.8663 7.16914 13.0575 7.84789 13.0838C7.2773 12.7035 6.80936 12.1883 6.48556 11.5839C6.16176 10.9794 5.9921 10.3044 5.99164 9.61875C5.99164 8.8425 6.19414 8.13375 6.55789 7.51875C7.60378 8.80626 8.90888 9.85928 10.3884 10.6094C11.8679 11.3595 13.4887 11.7898 15.1454 11.8725C14.5566 9.04125 16.6716 6.75 19.2141 6.75C20.4141 6.75 21.4941 7.2525 22.2554 8.0625C23.1966 7.88625 24.0966 7.53375 24.8991 7.06125C24.5879 8.025 23.9354 8.83875 23.0691 9.3525C23.9091 9.2625 24.7191 9.03 25.4691 8.70375C24.9029 9.53625 24.1941 10.275 23.3804 10.8638V10.8638Z"/></svg>