<svg width="31" height="30" viewBox="0 0 31 30" fill="none" xmlns="http://www.w3.org/2000/svg">
<path d="M15.5331 9.99787C12.7788 9.99787 10.531 12.2456 10.531 15C10.531 17.7544 12.7788 20.0021 15.5331 20.0021C18.2874 20.0021 20.5351 17.7544 20.5351 15C20.5351 12.2456 18.2874 9.99787 15.5331 9.99787ZM30.5354 15C30.5354 12.9286 30.5542 10.876 30.4379 8.80832C30.3215 6.40669 29.7737 4.27525 28.0175 2.51907C26.2576 0.759128 24.13 0.215011 21.7284 0.098682C19.657 -0.0176466 17.6044 0.00111617 15.5368 0.00111617C13.4655 0.00111617 11.4129 -0.0176466 9.34526 0.098682C6.94368 0.215011 4.81228 0.762881 3.05613 2.51907C1.29622 4.27901 0.752116 6.40669 0.63579 8.80832C0.519463 10.8797 0.538226 12.9324 0.538226 15C0.538226 17.0676 0.519463 19.124 0.63579 21.1917C0.752116 23.5933 1.29998 25.7247 3.05613 27.4809C4.81604 29.2409 6.94368 29.785 9.34526 29.9013C11.4166 30.0176 13.4692 29.9989 15.5368 29.9989C17.6082 29.9989 19.6608 30.0176 21.7284 29.9013C24.13 29.785 26.2614 29.2371 28.0175 27.4809C29.7774 25.721 30.3215 23.5933 30.4379 21.1917C30.558 19.124 30.5354 17.0714 30.5354 15V15ZM15.5331 22.6965C11.274 22.6965 7.83677 19.2591 7.83677 15C7.83677 10.7409 11.274 7.30355 15.5331 7.30355C19.7921 7.30355 23.2294 10.7409 23.2294 15C23.2294 19.2591 19.7921 22.6965 15.5331 22.6965ZM23.5446 8.7858C22.5502 8.7858 21.7472 7.98276 21.7472 6.98834C21.7472 5.99392 22.5502 5.19087 23.5446 5.19087C24.539 5.19087 25.342 5.99392 25.342 6.98834C25.3423 7.22447 25.296 7.45834 25.2058 7.67655C25.1156 7.89476 24.9832 8.09303 24.8162 8.26C24.6493 8.42697 24.451 8.55936 24.2328 8.64958C24.0146 8.73981 23.7807 8.7861 23.5446 8.7858V8.7858Z" fill="#3D3D3D"/>
</svg>
