<svg width="31" height="30" viewBox="0 0 31 30" fill="none" xmlns="http://www.w3.org/2000/svg">
<path d="M27.5552 0H3.98382C2.20926 0 0.769531 1.43973 0.769531 3.21429V26.7857C0.769531 28.5603 2.20926 30 3.98382 30H27.5552C29.3298 30 30.7695 28.5603 30.7695 26.7857V3.21429C30.7695 1.43973 29.3298 0 27.5552 0ZM19.3387 25.6942C18.7762 25.7946 18.5686 25.4464 18.5686 25.1585C18.5686 24.7969 18.582 22.9487 18.582 21.4554C18.582 20.4107 18.2338 19.7478 17.8253 19.3996C20.303 19.125 22.9146 18.7835 22.9146 14.5045C22.9146 13.2857 22.4794 12.6763 21.7695 11.8929C21.8834 11.6049 22.2651 10.4196 21.6557 8.87946C20.7249 8.59152 18.5954 10.0781 18.5954 10.0781C17.7115 9.83036 16.7539 9.70312 15.8097 9.70312C14.8655 9.70312 13.9079 9.83036 13.024 10.0781C13.024 10.0781 10.8945 8.59152 9.96373 8.87946C9.35435 10.4129 9.72935 11.5982 9.84989 11.8929C9.14007 12.6763 8.80525 13.2857 8.80525 14.5045C8.80525 18.7634 11.303 19.125 13.7807 19.3996C13.4593 19.6875 13.1713 20.183 13.0709 20.8929C12.4347 21.1808 10.8075 21.6763 9.83649 19.9621C9.22712 18.904 8.12891 18.817 8.12891 18.817C7.04408 18.8036 8.05525 19.5 8.05525 19.5C8.77846 19.8348 9.28739 21.1205 9.28739 21.1205C9.93694 23.1094 13.0441 22.4397 13.0441 22.4397C13.0441 23.3705 13.0575 24.8839 13.0575 25.1585C13.0575 25.4464 12.8566 25.7946 12.2874 25.6942C7.86775 24.2143 4.774 20.0089 4.774 15.0937C4.774 8.94643 9.47489 4.27902 15.6222 4.27902C21.7695 4.27902 26.7517 8.94643 26.7517 15.0937C26.7584 20.0089 23.7584 24.221 19.3387 25.6942ZM12.7695 21.6027C12.6423 21.6295 12.5218 21.5759 12.5084 21.4888C12.495 21.3884 12.582 21.3013 12.7093 21.2746C12.8365 21.2612 12.957 21.3147 12.9704 21.4018C12.9905 21.4888 12.9035 21.5759 12.7695 21.6027ZM12.1334 21.5424C12.1334 21.6295 12.0329 21.7031 11.899 21.7031C11.7517 21.7165 11.6512 21.6429 11.6512 21.5424C11.6512 21.4554 11.7517 21.3817 11.8856 21.3817C12.0128 21.3683 12.1334 21.442 12.1334 21.5424ZM11.216 21.4687C11.1892 21.5558 11.0552 21.596 10.9414 21.5558C10.8142 21.529 10.7271 21.4286 10.7539 21.3415C10.7807 21.2545 10.9146 21.2143 11.0285 21.2411C11.1624 21.2813 11.2494 21.3817 11.216 21.4687ZM10.3923 21.1071C10.332 21.1808 10.2048 21.1674 10.1044 21.067C10.0039 20.9799 9.97712 20.8527 10.0441 20.7924C10.1044 20.7187 10.2316 20.7321 10.332 20.8326C10.4191 20.9196 10.4526 21.0536 10.3923 21.1071ZM9.78292 20.4978C9.72266 20.5379 9.60882 20.4978 9.53516 20.3973C9.46149 20.2969 9.46149 20.183 9.53516 20.1362C9.60882 20.0759 9.72266 20.1228 9.78292 20.2232C9.85658 20.3237 9.85658 20.4442 9.78292 20.4978V20.4978ZM9.34766 19.8482C9.28739 19.9085 9.18694 19.875 9.11328 19.808C9.03962 19.721 9.02623 19.6205 9.0865 19.5737C9.14676 19.5134 9.24721 19.5469 9.32087 19.6138C9.39453 19.7009 9.40792 19.8013 9.34766 19.8482ZM8.899 19.3527C8.87221 19.4129 8.78516 19.4263 8.7115 19.3795C8.62444 19.3393 8.58426 19.2656 8.61105 19.2054C8.63783 19.1652 8.7115 19.1451 8.79855 19.1786C8.8856 19.2254 8.92578 19.2991 8.899 19.3527Z" fill="#3D3D3D"/>
</svg>
